<svg width="1601" height="1617" viewBox="0 0 1601 1617" fill="none" xmlns="http://www.w3.org/2000/svg">
<path d="M1200 1154.83V692.945L799.992 923.889V1385.78L1200 1154.83Z" fill="#8A8A8A"/>
<path d="M400 1154.83L800.007 1385.78V923.889L400 692.945V1154.83Z" fill="#B9B9B9"/>
<path d="M1200.01 692.944L800.007 462L400 692.945L800.007 923.889L1200.01 692.944Z" fill="#EEEEEE"/>
<path d="M1600 1385.83V923.945L1199.99 1154.89V1616.78L1600 1385.83Z" fill="#8D8D8D"/>
<path d="M800 1385.83L1200.01 1616.78V1154.89L800 923.945V1385.83Z" fill="#A2A2A2"/>
<path d="M1600.01 923.944L1200.01 693L800 923.945L1200.01 1154.89L1600.01 923.944Z" fill="#DFDFDF"/>
<path d="M800 1385.83V923.945L399.992 1154.89V1616.78L800 1385.83Z" fill="#969696"/>
<path d="M0 1385.83L400.007 1616.78V1154.89L0 923.945V1385.83Z" fill="#B8B8B8"/>
<path d="M800.014 923.944L400.007 693L0 923.945L400.007 1154.89L800.014 923.944Z" fill="#E4E4E4"/>
<path d="M1200 692.834V230.945L799.992 461.89V923.778L1200 692.834Z" fill="#7E7E7E"/>
<path d="M400 692.834L800.007 923.778V461.889L400 230.945V692.834Z" fill="#C4C4C4"/>
<path d="M1200.01 230.944L800.007 0L400 230.945L800.007 461.889L1200.01 230.944Z" fill="#F0F0F0"/>
<path d="M812 923L798 915L784 923L798 931L812 923Z" fill="black" fill-opacity="0.2"/>
</svg>
